<svg version="1.1" id="Layer_1" xmlns="http://www.w3.org/2000/svg" xmlns:xlink="http://www.w3.org/1999/xlink" x="0px" y="0px"
	 width="100%" viewBox="0 0 1024 1024" enable-background="new 0 0 1024 1024" xml:space="preserve">
<path fill="#000000" opacity="1.000000" stroke="none" 
	d="
M360.543671,531.541199 
	C341.846191,517.230164 333.940643,498.491943 335.553558,475.530853 
	C337.508362,447.702606 341.397003,420.084961 344.547974,392.386200 
	C347.043854,370.446198 349.232147,348.471222 351.716736,326.529877 
	C354.237915,304.265289 356.880371,282.013611 359.632050,259.776367 
	C360.446777,253.192474 363.707855,250.105118 370.464508,249.567963 
	C385.429779,248.378235 400.437164,249.287949 415.424744,249.053604 
	C422.505219,248.942902 422.202423,249.012589 422.710480,241.959717 
	C425.406891,204.527878 450.214478,169.341766 490.958069,159.811371 
	C545.466797,147.061157 594.622314,182.408066 602.566650,234.457062 
	C603.047791,237.609421 603.520569,240.727814 603.308044,243.875000 
	C603.042603,247.807297 604.650085,249.117691 608.547974,249.070221 
	C622.376404,248.901810 636.208496,248.960770 650.038452,249.046768 
	C652.851013,249.064255 655.749512,249.230392 658.451965,249.931198 
	C663.356628,251.203064 665.777222,254.804062 666.333313,259.747162 
	C669.023682,283.660980 671.643860,307.583008 674.430603,331.485596 
	C677.601440,358.683105 680.995667,385.854584 684.154114,413.053497 
	C686.585144,433.988647 689.535278,454.899170 690.953247,475.908508 
	C693.513794,513.846497 665.935486,543.081482 630.280212,543.246643 
	C551.964478,543.609192 473.645844,543.399353 395.328552,543.297852 
	C382.652893,543.281433 371.205627,538.963196 360.543671,531.541199 
M537.281006,269.433838 
	C506.181122,269.478790 475.076813,269.120667 443.417053,270.116760 
	C443.417053,275.080536 443.552612,279.712830 443.372894,284.332855 
	C443.236420,287.840363 444.078949,290.497009 446.760834,293.145813 
	C454.358276,300.649445 453.986053,312.687714 446.383301,320.008057 
	C438.605072,327.497345 425.950073,327.256775 418.506622,319.478058 
	C411.105225,311.743286 411.552826,299.606018 419.560913,292.219513 
	C420.914734,290.970795 422.277344,289.988098 422.170380,287.747650 
	C421.956085,283.258392 422.004211,278.753113 422.056488,274.255737 
	C422.095337,270.913757 420.596954,269.398743 417.231110,269.419495 
	C406.072723,269.488312 394.913696,269.442688 383.755188,269.497894 
	C380.389160,269.514526 378.467285,270.619476 378.065125,274.670197 
	C375.946808,296.006439 373.518097,317.312561 371.097137,338.617767 
	C368.245209,363.715820 365.205139,388.792664 362.407440,413.896637 
	C360.088013,434.709351 358.279907,455.582031 355.739990,476.366425 
	C352.766968,500.694397 371.616333,522.654968 396.099213,522.662109 
	C474.247589,522.684753 552.395996,522.674377 630.544373,522.649353 
	C649.510376,522.643311 665.910950,508.893127 669.747620,490.421753 
	C671.594299,481.531128 670.209961,472.833252 669.261780,464.113312 
	C666.908691,442.475159 664.178345,420.878357 661.725769,399.250641 
	C659.554443,380.103699 657.634949,360.928162 655.455688,341.782166 
	C652.937744,319.660370 650.186768,297.564941 647.712952,275.438416 
	C647.279419,271.560486 645.849243,269.770203 641.809753,269.845215 
	C633.148132,270.006134 624.481506,269.874481 615.817383,269.934082 
	C602.229919,270.027527 604.200195,268.578186 604.039673,281.603271 
	C603.990295,285.614349 603.320984,289.545105 607.040710,293.099060 
	C614.652527,300.371643 614.195435,312.770416 606.723267,319.984772 
	C599.291504,327.160126 587.104431,327.241241 579.518799,320.165771 
	C572.031616,313.182159 571.341248,300.460693 578.723877,293.198608 
	C581.976135,289.999542 583.026794,286.818481 582.682190,282.638550 
	C582.518433,280.652496 582.658691,278.641815 582.653198,276.642273 
	C582.634399,269.821686 582.240906,269.212128 575.191223,269.490387 
	C562.864319,269.976959 550.550293,270.143250 537.281006,269.433838 
M571.300293,209.192566 
	C551.788269,181.121872 516.937134,169.943695 486.932098,182.734894 
	C460.522705,193.993225 446.535278,214.655807 443.363495,242.962830 
	C442.868591,247.379303 444.222778,249.145737 449.041962,249.128693 
	C491.490143,248.978455 533.939209,249.031128 576.387878,249.096664 
	C582.860779,249.106659 583.222717,248.907761 582.578308,242.576935 
	C581.384033,230.844193 578.274902,219.744629 571.300293,209.192566 
z"/>
<path fill="#000000" opacity="1.000000" stroke="none" 
	d="
M770.647217,651.794922 
	C769.471436,629.712524 769.810608,608.060059 769.705322,586.414612 
	C769.672363,579.641113 770.662598,578.706604 777.568115,578.684204 
	C785.230103,578.659363 792.892395,578.642395 800.554138,578.692200 
	C806.399841,578.730103 808.214905,580.424011 808.000854,586.067566 
	C806.554810,624.195496 807.702209,662.336365 807.390137,700.469604 
	C807.341125,706.453979 807.794189,712.442200 807.997009,718.429199 
	C808.151855,722.999329 805.955444,725.236572 801.351807,725.101746 
	C792.533081,724.843384 783.714722,724.519836 774.893860,724.403076 
	C771.034363,724.351929 769.430664,721.573486 767.661499,719.018555 
	C755.151062,700.951050 742.707947,682.836914 730.227051,664.748901 
	C725.436096,657.805603 720.602539,650.891724 715.295654,643.255432 
	C713.893188,646.474487 714.272522,648.813171 714.451172,651.006775 
	C716.320740,673.959045 714.785645,696.956238 715.472534,719.920532 
	C715.574280,723.321716 713.897949,725.076965 710.830322,725.130188 
	C701.339844,725.294800 691.843384,725.305237 682.352722,725.155273 
	C678.724121,725.097900 677.060486,722.756958 677.152832,719.174988 
	C678.299500,674.712891 677.273621,630.240601 677.789307,585.775818 
	C677.855286,580.087280 679.320374,578.725220 684.965332,578.691467 
	C692.793640,578.644653 700.627502,578.846313 708.448914,578.609680 
	C712.615601,578.483582 715.124207,580.146362 717.417297,583.553711 
	C734.521057,608.968628 751.802368,634.264038 769.035217,659.591980 
	C769.295471,659.974426 769.647095,660.294678 770.647644,661.426086 
	C770.647644,657.798523 770.647644,655.022888 770.647217,651.794922 
z"/>
<path fill="#000000" opacity="1.000000" stroke="none" 
	d="
M454.966003,672.295471 
	C455.282257,668.268127 453.401459,667.243774 450.130737,667.261475 
	C436.137085,667.337341 422.141998,667.363892 408.149231,667.225281 
	C404.385254,667.188049 403.267914,668.729553 403.299408,672.306458 
	C403.428467,686.960571 403.217468,701.613281 404.123627,716.259766 
	C404.591553,723.823242 402.920959,725.266968 395.238556,725.277527 
	C387.741730,725.287842 380.244537,725.321838 372.748138,725.265320 
	C366.506439,725.218201 364.675110,723.434204 364.751129,717.203613 
	C364.978668,698.551147 365.559387,679.899353 365.526062,661.248230 
	C365.481720,636.432068 364.967224,611.617065 364.701782,586.801025 
	C364.626068,579.721924 365.688660,578.699280 372.736877,578.675781 
	C380.733429,578.649109 388.730316,578.634521 396.726685,578.683289 
	C402.714508,578.719849 403.355438,579.386169 403.358521,585.261414 
	C403.365997,599.422119 403.495544,613.585083 403.268280,627.742249 
	C403.194824,632.320068 404.684998,633.832031 409.307739,633.736084 
	C422.463318,633.463074 435.628052,633.644226 448.789154,633.620605 
	C454.483215,633.610352 455.833954,632.374023 455.474274,626.481384 
	C454.661407,613.163208 455.194000,599.835754 454.928009,586.515442 
	C454.794037,579.805725 455.988098,578.691223 462.728882,578.671326 
	C471.058594,578.646790 479.389618,578.753784 487.717834,578.640869 
	C492.285065,578.578979 494.385681,580.399597 494.377716,585.157593 
	C494.303070,629.638367 494.302521,674.119446 494.385498,718.600159 
	C494.393677,722.974609 492.561127,724.469055 488.370667,724.436218 
	C479.213348,724.364502 470.053497,724.559631 460.895264,724.685181 
	C456.484802,724.745667 454.609894,722.633118 454.660919,718.236694 
	C454.836823,703.077576 454.873627,687.916809 454.966003,672.295471 
z"/>
<path fill="#000000" opacity="1.000000" stroke="none" 
	d="
M228.105438,725.297241 
	C218.133102,725.309143 217.778107,724.930786 217.771179,715.477051 
	C217.739929,672.837463 217.689499,630.197937 217.656525,587.558350 
	C217.650085,579.221313 218.198624,578.677124 226.358368,578.669617 
	C234.519852,578.662109 242.681580,578.631287 250.842758,578.680969 
	C256.700836,578.716675 258.345764,580.221130 258.068817,586.162354 
	C257.386292,600.807312 257.250946,615.454590 257.347168,630.108887 
	C257.358917,631.896912 257.348755,633.684998 257.348755,635.847168 
	C260.113678,635.382202 261.063385,633.490356 262.234497,632.056030 
	C275.288666,616.067993 288.370758,600.101257 301.242493,583.966980 
	C304.180359,580.284485 307.253723,578.373230 312.166565,578.554993 
	C321.980408,578.918152 331.816864,578.662292 341.643951,578.682129 
	C343.630249,578.686157 345.833252,578.438721 346.965118,580.571777 
	C348.164062,582.831238 346.964111,584.686401 345.605408,586.493042 
	C333.089447,603.134949 319.410187,618.826660 306.065887,634.787964 
	C296.683472,646.010315 296.588776,645.849670 305.288483,657.547974 
	C319.396698,676.518921 333.429657,695.545898 347.493256,714.549988 
	C347.790405,714.951599 348.116852,715.339905 348.355194,715.775208 
	C349.500153,717.866272 351.930389,719.634888 350.327026,722.476074 
	C348.865265,725.066345 346.263702,725.073975 343.735474,725.077026 
	C336.739929,725.085571 329.656525,724.364319 322.769470,725.224854 
	C312.483398,726.510071 306.286346,722.309814 300.755188,713.904236 
	C291.338837,699.594482 280.775940,686.038940 270.681732,672.176025 
	C270.109497,671.390137 269.419434,670.690002 268.356598,669.451782 
	C262.738831,675.760620 256.234344,680.665100 257.162323,690.593628 
	C258.026581,699.840332 257.374817,709.231323 257.337799,718.558594 
	C257.315582,724.159546 256.292267,725.210693 250.574432,725.273987 
	C243.246735,725.355164 235.917480,725.295227 228.105438,725.297241 
z"/>
<path fill="#000000" opacity="1.000000" stroke="none" 
	d="
M662.001587,722.069824 
	C660.988281,724.928772 658.935852,725.319702 656.644897,725.294250 
	C647.484314,725.192566 638.323730,725.076843 629.162842,725.017029 
	C625.403259,724.992493 622.929077,723.456421 621.637695,719.757935 
	C619.774109,714.420776 617.508667,709.224121 615.639954,703.888550 
	C614.436462,700.452393 612.489075,698.894836 608.666565,698.941040 
	C593.510803,699.124084 578.351074,699.129150 563.194580,698.996948 
	C559.583984,698.965454 557.767395,700.307251 556.728088,703.719482 
	C555.033142,709.284363 552.901855,714.714905 551.041504,720.231506 
	C550.059143,723.144653 548.230530,724.392944 545.094788,724.441772 
	C536.273254,724.579163 527.456848,725.017456 518.635742,725.221924 
	C510.860504,725.402222 509.232208,723.146606 512.051453,715.890564 
	C524.343689,684.253540 536.718018,652.648499 549.041504,621.023621 
	C553.752563,608.934143 558.543457,596.872681 563.015930,584.694885 
	C564.636169,580.283325 567.098206,578.432739 571.888855,578.578186 
	C581.707520,578.876282 591.542542,578.757019 601.368469,578.628418 
	C605.049744,578.580261 607.255554,580.037598 608.579651,583.459717 
	C626.346191,629.376160 644.164307,675.272583 661.965576,721.175537 
	C662.024536,721.327637 662.024170,721.502686 662.001587,722.069824 
M583.659668,629.144470 
	C579.545410,640.527405 575.386108,651.894409 571.338623,663.301025 
	C569.685059,667.961243 570.328125,668.829346 575.432678,668.891296 
	C583.071655,668.984009 590.712585,668.939392 598.352539,668.904358 
	C599.617798,668.898560 601.062378,669.206787 601.983337,667.717346 
	C602.109924,664.850830 600.713867,662.336792 599.775879,659.710266 
	C596.206665,649.715088 592.660156,639.711182 588.984680,629.755005 
	C588.046936,627.215027 586.854980,624.080261 583.659668,629.144470 
z"/>
<path fill="#000000" opacity="1.000000" stroke="none" 
	d="
M524.694580,762.028870 
	C546.105408,770.152344 554.153259,788.883972 552.949524,805.624573 
	C551.390076,827.312256 537.618103,842.593506 516.474731,845.905457 
	C489.951843,850.059937 469.386047,836.808533 463.262543,812.745911 
	C456.901886,787.751587 474.247772,762.917053 499.794037,759.538330 
	C508.267700,758.417603 516.332947,759.202759 524.694580,762.028870 
M502.220612,827.579651 
	C519.586182,828.471191 527.983643,822.563049 531.056519,806.495117 
	C532.842285,797.157410 529.719971,788.949402 522.386902,782.940186 
	C514.699646,776.640686 505.784180,776.327026 497.062653,780.394775 
	C486.229645,785.447327 483.265961,794.879517 484.170593,806.104004 
	C485.063324,817.180237 490.978149,824.100281 502.220612,827.579651 
z"/>
<path fill="#000000" opacity="1.000000" stroke="none" 
	d="
M639.054932,772.098206 
	C648.161926,787.923462 644.490173,802.889954 628.810669,814.113281 
	C634.112610,824.288208 641.311462,833.453735 646.729370,844.631897 
	C638.896362,845.848694 631.840332,845.375000 624.814209,845.037354 
	C622.971863,844.948792 622.345703,843.007812 621.516968,841.572449 
	C617.438110,834.507385 613.152405,827.552368 609.337585,820.347900 
	C607.282654,816.466919 604.309753,815.717651 600.648621,816.622070 
	C597.100281,817.498657 598.465576,820.676880 598.401917,822.932922 
	C598.232788,828.924927 598.250488,834.927063 598.385986,840.920898 
	C598.458496,844.130859 597.181885,845.467712 593.972351,845.338867 
	C590.479919,845.198547 586.964355,845.118286 583.482544,845.356934 
	C579.128540,845.655334 577.595520,843.845093 577.630859,839.542480 
	C577.774475,822.052856 577.689453,804.561462 577.688049,787.070679 
	C577.687500,779.907776 577.674072,772.744934 577.690491,765.582031 
	C577.695557,763.372803 577.660156,760.777954 580.698181,760.796509 
	C593.831604,760.876709 606.996155,759.789062 620.091797,761.390442 
	C627.666626,762.316711 633.950806,765.874878 639.054932,772.098206 
M621.770996,791.418518 
	C622.506958,789.830811 622.431824,788.292114 621.926758,786.593079 
	C620.351257,781.292603 616.479797,778.954590 608.003418,778.437500 
	C598.334167,777.847778 598.217041,777.849609 598.368103,787.486023 
	C598.567566,800.218079 596.030090,798.600403 609.809204,798.664001 
	C614.937439,798.687622 619.406372,797.442017 621.770996,791.418518 
z"/>
<path fill="#000000" opacity="1.000000" stroke="none" 
	d="
M725.155029,803.957520 
	C724.995972,811.330322 724.995972,811.342529 718.085144,811.359070 
	C710.753601,811.376587 703.420349,811.463928 696.091370,811.327271 
	C692.751648,811.265015 691.231201,812.348999 691.307678,815.914795 
	C691.612000,830.092529 689.535400,827.400208 702.769104,827.620483 
	C710.265259,827.745239 717.767029,827.753235 725.262268,827.606750 
	C728.761536,827.538330 730.435730,828.568604 730.378845,832.409973 
	C730.155090,847.533630 732.043579,845.173157 717.817444,845.293884 
	C703.988525,845.411194 690.156067,845.190491 676.328918,845.387756 
	C671.926331,845.450562 670.569031,843.825500 670.594666,839.534424 
	C670.740051,815.207947 670.766418,790.879333 670.575439,766.553467 
	C670.538513,761.858521 672.213684,760.526306 676.694824,760.583496 
	C692.355164,760.783203 708.021118,760.789062 723.681274,760.583862 
	C728.032349,760.526794 729.554199,761.890198 729.425232,766.302856 
	C729.014832,780.357361 731.319519,778.182129 717.668030,778.371399 
	C710.671082,778.468384 703.664429,778.584045 696.676208,778.318848 
	C692.445862,778.158325 691.162903,779.786682 691.281616,783.862549 
	C691.610535,795.155212 689.853699,793.830505 701.508240,793.949280 
	C707.006287,794.005310 712.505371,793.950012 718.004028,793.963989 
	C724.763000,793.981140 725.049316,794.271973 725.124207,800.984070 
	C725.133484,801.817139 725.142456,802.650269 725.155029,803.957520 
z"/>
<path fill="#000000" opacity="1.000000" stroke="none" 
	d="
M298.873108,839.248169 
	C289.282440,833.070679 289.281158,833.064514 296.562439,825.118774 
	C297.237732,824.381775 298.008057,823.715881 298.590881,822.912964 
	C300.880920,819.757568 303.106079,819.430725 306.462952,821.902710 
	C312.388184,826.266174 319.257446,828.118713 326.688507,827.689636 
	C330.882385,827.447449 334.524536,825.906067 335.388550,821.631653 
	C336.266663,817.287903 332.547668,815.564270 329.218842,814.367371 
	C322.498016,811.950989 315.506836,810.220154 308.934143,807.472290 
	C296.303284,802.191467 291.020264,790.717285 294.793365,777.688354 
	C296.850189,770.585876 301.156006,765.222229 308.093750,762.398315 
	C323.187958,756.254150 337.362885,758.576050 350.784546,767.337341 
	C354.656006,769.864502 355.123779,772.524597 351.483429,775.614746 
	C351.231445,775.828613 351.027069,776.099548 350.805450,776.348328 
	C344.493195,783.433044 344.505005,783.405273 335.929321,779.798157 
	C331.744110,778.037903 327.399139,776.978333 322.802338,777.352051 
	C318.830475,777.674866 315.380310,779.188782 314.625854,783.362305 
	C313.910675,787.318359 316.923492,789.455994 320.190796,790.636780 
	C326.284485,792.839111 332.558258,794.549805 338.624634,796.819214 
	C346.143097,799.631836 352.747681,803.553345 355.215363,812.064331 
	C358.886566,824.726196 352.793945,838.263550 340.332916,843.329346 
	C326.080963,849.123291 312.311127,847.029480 298.873108,839.248169 
z"/>
<path fill="#000000" opacity="1.000000" stroke="none" 
	d="
M386.035370,778.401123 
	C383.880615,778.388794 382.215424,778.339905 380.551697,778.370850 
	C377.790009,778.422241 376.636322,776.985413 376.706604,774.351624 
	C376.711060,774.185486 376.695496,774.018860 376.695831,773.852478 
	C376.728851,758.405762 375.280151,760.781128 389.011047,760.690186 
	C405.824249,760.578857 422.640656,760.802124 439.451416,760.571167 
	C444.054901,760.507874 445.561768,761.977295 445.419067,766.561035 
	C444.995026,780.181885 447.045135,778.256836 433.839111,778.372009 
	C421.351257,778.481018 421.350189,778.396606 421.349426,790.704468 
	C421.348450,807.018982 421.227509,823.334900 421.428894,839.646973 
	C421.481903,843.940796 420.266510,845.826782 415.783325,845.377075 
	C412.816559,845.079468 409.772858,845.082520 406.804535,845.371521 
	C401.844666,845.854431 400.558685,843.593628 400.604767,838.966125 
	C400.787140,820.655823 400.553009,802.341248 400.750183,784.031250 
	C400.797577,779.635498 399.368774,777.943481 395.011383,778.344849 
	C392.204895,778.603516 389.355652,778.397949 386.035370,778.401123 
z"/>
</svg>